<?xml version="1.0" encoding="utf-8"?>
<!-- Generator: Adobe Illustrator 24.0.0, SVG Export Plug-In . SVG Version: 6.00 Build 0)  -->
<svg version="1.1" id="Calque_1" xmlns="http://www.w3.org/2000/svg" xmlns:xlink="http://www.w3.org/1999/xlink" x="0px" y="0px"
	 viewBox="0 0 60 60" style="enable-background:new 0 0 60 60;" xml:space="preserve">
<style type="text/css">
	.st0{fill:#999999;}
	.st1{fill:#1D0E46;}
</style>
<title>Express-campaign</title>
<desc>Created with Sketch.</desc>
<path id="Path" class="st0" d="M36.95,10.96l2.89,6.47L28.69,28.58c-0.75,0.75-0.75,1.98,0,2.73c0.38,0.38,0.87,0.57,1.37,0.57
	c0.49,0,0.99-0.19,1.37-0.57l11.15-11.15l6.47,2.89c0.89,0.3,1.88,0.07,2.54-0.6l7.69-7.69c1.3-1.3,0.78-3.53-0.97-4.11l-6.72-2.24
	L49.34,1.7C48.98,0.61,47.99,0,46.98,0c-0.62,0-1.25,0.23-1.75,0.73l-7.69,7.69C36.88,9.08,36.65,10.06,36.95,10.96L36.95,10.96z"/>
<polygon id="Path_1_" class="st1" points="46.7,4.69 48.24,9.31 48.85,11.15 50.69,11.76 55.31,13.3 49.86,18.75 43.91,16.09 
	41.25,10.14 "/>
<path id="Path_2_" class="st1" d="M58.6,20.94l-3.17,3.17c0.44,1.9,0.7,3.86,0.7,5.89c0,14.41-11.72,26.13-26.13,26.13
	S3.87,44.41,3.87,30S15.59,3.87,30,3.87c2.03,0,4,0.26,5.89,0.7l3.17-3.17C36.13,0.47,33.07,0,30,0C13.43,0,0,13.43,0,30
	s13.43,30,30,30s30-13.43,30-30C60,26.84,59.51,23.8,58.6,20.94z"/>
<path id="Path_3_" class="st1" d="M33.21,12.34c-0.19-0.56-0.3-1.14-0.32-1.73c-0.95-0.14-1.9-0.29-2.88-0.29
	c-10.88,0-19.69,8.81-19.69,19.69c0,10.88,8.81,19.69,19.69,19.69c10.88,0,19.69-8.81,19.69-19.69c0-1-0.15-1.96-0.29-2.92
	c-0.59-0.03-1.17-0.09-1.73-0.28c-0.25-0.09,0.12,0.07-2.48-1.09c0.39,1.37,0.67,2.8,0.67,4.29c0,8.74-7.11,15.85-15.85,15.85
	S14.15,38.74,14.15,30S21.26,14.15,30,14.15c1.5,0,2.92,0.28,4.29,0.67C33.13,12.22,33.29,12.59,33.21,12.34z"/>
</svg>
