<?xml version="1.0" encoding="UTF-8"?>
<svg width="69px" height="60px" viewBox="0 0 69 60" version="1.1" xmlns="http://www.w3.org/2000/svg" xmlns:xlink="http://www.w3.org/1999/xlink">
    <!-- Generator: Sketch 57 (83077) - https://sketch.com -->
    <title>wallet-light</title>
    <desc>Created with Sketch.</desc>
    <g id="Page-1" stroke="none" stroke-width="1" fill="none" fill-rule="evenodd">
        <g id="LetsGetStarted-(1)" transform="translate(-985.000000, -427.000000)" fill="#161E4B" fill-rule="nonzero">
            <g id="wallet-light" transform="translate(985.000000, 427.000000)">
                <path d="M51.4285714,30 C49.0620536,30 47.1428571,31.9191964 47.1428571,34.2857143 C47.1428571,36.6522321 49.0620536,38.5714286 51.4285714,38.5714286 C53.7950893,38.5714286 55.7142857,36.6522321 55.7142857,34.2857143 C55.7142857,31.9191964 53.7950893,30 51.4285714,30 Z M62.1428571,8.57142857 L60,8.57142857 L60,6.42857143 C60,2.878125 57.121875,0 53.5714286,0 L12.8571429,0 C5.75625,0 0,5.75625 0,12.8571429 L0,47.1428571 C0,54.24375 5.75625,60 12.8571429,60 L60,60 C64.734375,60 68.5714286,56.1629464 68.5714286,51.4285714 L68.5714286,15 C68.5714286,11.4495536 65.6933036,8.57142857 62.1428571,8.57142857 Z M64.2857143,51.4285714 C64.2857143,53.7910714 62.3625,55.7142857 60,55.7142857 L12.8571429,55.7142857 C8.13080357,55.7142857 4.28571429,51.8691964 4.28571429,47.1428571 L4.28571429,12.8571429 C4.28571429,8.13080357 8.13080357,4.28571429 12.8571429,4.28571429 L53.5714286,4.28571429 C54.7526786,4.28571429 55.7142857,5.24732143 55.7142857,6.42857143 L55.7142857,8.57142857 L15,8.57142857 C13.8160714,8.57142857 12.8571429,9.53035714 12.8571429,10.7142857 C12.8571429,11.8982143 13.8160714,12.8571429 15,12.8571429 L62.1428571,12.8571429 C63.3241071,12.8571429 64.2857143,13.81875 64.2857143,15 L64.2857143,51.4285714 Z" id="Shape"></path>
            </g>
        </g>
    </g>
</svg>