<?xml version="1.0" encoding="utf-8"?>
<!-- Generator: Adobe Illustrator 24.0.0, SVG Export Plug-In . SVG Version: 6.00 Build 0)  -->
<svg version="1.1" id="Calque_1" xmlns="http://www.w3.org/2000/svg" xmlns:xlink="http://www.w3.org/1999/xlink" x="0px" y="0px"
	 viewBox="0 0 210 138" style="enable-background:new 0 0 210 138;" xml:space="preserve">
<style type="text/css">
	.st0{opacity:0.1;}
	.st1{fill-rule:evenodd;clip-rule:evenodd;}
	.st2{fill-rule:evenodd;clip-rule:evenodd;fill:#F6F6F6;}
	.st3{fill-rule:evenodd;clip-rule:evenodd;fill:url(#path-5_3_);fill-opacity:0.1;}
	.st4{fill:none;stroke:#FFFFFF;stroke-width:3.75;stroke-opacity:0.25;}
	.st5{fill-rule:evenodd;clip-rule:evenodd;fill:#FFFFFF;}
	.st6{fill-rule:evenodd;clip-rule:evenodd;fill:url(#bottom_1_);}
	.st7{fill-rule:evenodd;clip-rule:evenodd;fill:#F2F2F2;}
	.st8{fill-rule:evenodd;clip-rule:evenodd;fill:url(#path-13_3_);fill-opacity:0.02;}
	.st9{fill-rule:evenodd;clip-rule:evenodd;fill:#FAFAFA;}
	.st10{fill-rule:evenodd;clip-rule:evenodd;fill:url(#path-18_4_);fill-opacity:0.03;}
	.st11{fill-rule:evenodd;clip-rule:evenodd;fill:url(#path-18_8_);fill-opacity:0.04;}
	.st12{fill-rule:evenodd;clip-rule:evenodd;fill:url(#path-18_9_);fill-opacity:0.3;}
	.st13{fill-rule:evenodd;clip-rule:evenodd;fill:#F7F7F7;}
	.st14{fill-rule:evenodd;clip-rule:evenodd;fill:#1D0E46;}
	.st15{fill-rule:evenodd;clip-rule:evenodd;fill:#979696;}
	.st16{fill-rule:evenodd;clip-rule:evenodd;fill:#82377C;}
	.st17{fill-rule:evenodd;clip-rule:evenodd;fill:url(#SVGID_1_);stroke:#000000;stroke-width:2.8;stroke-opacity:0.04;}
	.st18{fill-rule:evenodd;clip-rule:evenodd;fill:url(#screen-frame_1_);stroke:#000000;stroke-width:4.8;stroke-opacity:0.03;}
	.st19{opacity:0.6;}
	.st20{opacity:0.75;}
	.st21{fill-rule:evenodd;clip-rule:evenodd;fill:#9092A5;}
	.st22{fill-rule:evenodd;clip-rule:evenodd;fill:#F1F1F1;}
</style>
<title>Group 17</title>
<desc>Created with Sketch.</desc>
<g id="Page-1">
	<g id="AdDesktop" transform="translate(-478.000000, -650.000000)">
		<g id="Group-17" transform="translate(504.000000, 664.000000)">
			<g id="Group-10">
				<g id="Group-3-Copy">
					<g id="shadow" class="st0">
						<g>
							<path id="path-1" class="st1" d="M158,89.08c0,0-5.22,1.62-18.26,1.62c0,0-43.68,0.29-60.74,0.29s-60.74-0.29-60.74-0.29
								C5.22,90.71,0,89.08,0,89.08H158z"/>
						</g>
					</g>
					<g id="top">
						<g>
							<path id="path-5" class="st1" d="M20.02,0h118.94c2.45,0,4.51,2.07,4.51,4.54v80c0,2.47-0.02,4.54-2.5,4.54H18.26
								c-2.52,0-2.75-2.07-2.75-4.54v-80C15.51,2.07,17.57,0,20.02,0L20.02,0z"/>
						</g>
						<g>
							<path id="path-5_1_" class="st2" d="M20.02,0h118.94c2.45,0,4.51,2.07,4.51,4.54v80c0,2.47-0.02,4.54-2.5,4.54H18.26
								c-2.52,0-2.75-2.07-2.75-4.54v-80C15.51,2.07,17.57,0,20.02,0L20.02,0z"/>
						</g>
						<g>
							
								<linearGradient id="path-5_3_" gradientUnits="userSpaceOnUse" x1="-511.6704" y1="470.9384" x2="-511.6704" y2="470.9848" gradientTransform="matrix(127.9509 0 0 -89.0842 65548.1875 42042.2656)">
								<stop  offset="0" style="stop-color:#000000"/>
								<stop  offset="1" style="stop-color:#000000;stop-opacity:0"/>
							</linearGradient>
							<path id="path-5_2_" class="st3" d="M20.02,0h118.94c2.45,0,4.51,2.07,4.51,4.54v80c0,2.47-0.02,4.54-2.5,4.54H18.26
								c-2.52,0-2.75-2.07-2.75-4.54v-80C15.51,2.07,17.57,0,20.02,0L20.02,0z"/>
						</g>
						<path class="st4" d="M20.02,1.87c-1.41,0-2.63,1.23-2.63,2.67v80c0,2.33,0.15,2.67,0.88,2.67h122.69
							c0.57,0,0.63-0.15,0.63-2.67v-80c0-1.44-1.22-2.67-2.63-2.67H20.02z"/>
					</g>
					<g id="screen">
						<polygon id="path-7_1_" class="st5" points="18.42,6.71 114.47,6.71 139.58,6.71 139.58,80.46 18.42,80.46 						"/>
					</g>
					<g id="screen_1_">
					</g>
					
						<linearGradient id="bottom_1_" gradientUnits="userSpaceOnUse" x1="-512.3987" y1="383.0243" x2="-512.3987" y2="384.0217" gradientTransform="matrix(158 0 0 -3.8316 81038 1558.5786)">
						<stop  offset="0" style="stop-color:#D0D0D0"/>
						<stop  offset="1" style="stop-color:#E7E7E7"/>
					</linearGradient>
					<path id="bottom" class="st6" d="M158,87.17c0,0-5.22,3.25-18.2,3.07C139.74,90.42,96.06,91,79.13,91
						c-17.19,0-60.87-0.58-60.92-0.77C5.22,90.42,0,87.17,0,87.17H158z"/>
					<g id="bottomfront">
						<g>
							<rect id="path-13" y="87.17" class="st7" width="158" height="1"/>
						</g>
						<g>
							
								<linearGradient id="path-13_3_" gradientUnits="userSpaceOnUse" x1="-511.8987" y1="123.3898" x2="-512.8987" y2="123.3898" gradientTransform="matrix(158 0 0 -1 81038 211.0582)">
								<stop  offset="0" style="stop-color:#000000"/>
								<stop  offset="0.4965" style="stop-color:#FFFFFF;stop-opacity:0.5"/>
								<stop  offset="1" style="stop-color:#000000"/>
							</linearGradient>
							<rect id="path-13_1_" y="87.17" class="st8" width="158" height="1"/>
						</g>
						<g>
							<rect id="path-13_2_" y="87.17" class="st1" width="158" height="1"/>
						</g>
					</g>
					<g id="shadows">
						<g>
							<path id="path-18" class="st9" d="M79,89.08c-6.06,0-14.41-0.32-15.99-0.96v-1.92h31.99v1.92
								C93.41,88.76,85.06,89.08,79,89.08z"/>
						</g>
						<g>
							
								<linearGradient id="path-18_4_" gradientUnits="userSpaceOnUse" x1="-500.1816" y1="353.3785" x2="-500.1816" y2="352.3991" gradientTransform="matrix(31.9877 0 0 -2.8737 16078.6758 1101.769)">
								<stop  offset="0" style="stop-color:#000000"/>
								<stop  offset="1" style="stop-color:#999999"/>
							</linearGradient>
							<path id="path-18_1_" class="st10" d="M79,89.08c-6.06,0-14.41-0.32-15.99-0.96v-1.92h31.99v1.92
								C93.41,88.76,85.06,89.08,79,89.08z"/>
						</g>
						<g>
							
								<linearGradient id="path-18_8_" gradientUnits="userSpaceOnUse" x1="-500.1816" y1="352.8991" x2="-500.1816" y2="353.3991" gradientTransform="matrix(31.9877 0 0 -2.8737 16078.6758 1101.769)">
								<stop  offset="0" style="stop-color:#000000;stop-opacity:0"/>
								<stop  offset="1" style="stop-color:#000000"/>
							</linearGradient>
							<path id="path-18_2_" class="st11" d="M79,89.08c-6.06,0-14.41-0.32-15.99-0.96v-1.92h31.99v1.92
								C93.41,88.76,85.06,89.08,79,89.08z"/>
						</g>
						<g>
							
								<linearGradient id="path-18_9_" gradientUnits="userSpaceOnUse" x1="-500.1816" y1="353.1911" x2="-500.1816" y2="352.3991" gradientTransform="matrix(31.9877 0 0 -2.8737 16078.6758 1101.769)">
								<stop  offset="0" style="stop-color:#FFFFFF;stop-opacity:0"/>
								<stop  offset="0" style="stop-color:#FFFFFF;stop-opacity:0"/>
								<stop  offset="1" style="stop-color:#FFFFFF"/>
							</linearGradient>
							<path id="path-18_3_" class="st12" d="M79,89.08c-6.06,0-14.41-0.32-15.99-0.96v-1.92h31.99v1.92
								C93.41,88.76,85.06,89.08,79,89.08z"/>
						</g>
					</g>
				</g>
				<rect id="Rectangle-Copy-53" x="39" y="20" class="st13" width="90" height="5"/>
				<rect id="Rectangle-Copy-63" x="25" y="20" class="st14" width="11" height="54"/>
				<rect id="Rectangle-Copy-57" x="25" y="11" class="st13" width="104" height="6"/>
				<rect id="Rectangle-Copy-55" x="39" y="39" class="st13" width="90" height="6"/>
				<rect id="Rectangle-Copy-54" x="39" y="30" class="st13" width="90" height="5"/>
				<rect id="Rectangle-Copy-56" x="39" y="49" class="st13" width="90" height="6"/>
				<rect id="Rectangle-Copy-58" x="39" y="59" class="st13" width="90" height="5"/>
				<rect id="Rectangle-Copy-66" x="39" y="70" class="st13" width="90" height="5"/>
			</g>
			<g id="Group-11" transform="translate(125.000000, 29.000000)">
				<g id="Group-4-Copy">
					<path id="Rectangle" class="st15" d="M14.9,8.89h7.25c7.18,0,13,5.82,13,13v43.12c0,7.18-5.82,13-13,13H14.9
						c-7.18,0-13-5.82-13-13V21.89C1.9,14.71,7.72,8.89,14.9,8.89z"/>
					<path id="Rectangle_1_" class="st5" d="M8.75,16.79H28.3c2.21,0,4,1.79,4,4v43.35c0,2.21-1.79,4-4,4H8.75c-2.21,0-4-1.79-4-4
						V20.79C4.75,18.58,6.54,16.79,8.75,16.79z"/>
					<path id="Rectangle_2_" class="st15" d="M7.65,19.75H27.5c0.55,0,1,0.45,1,1v2.94c0,0.55-0.45,1-1,1H7.65c-0.55,0-1-0.45-1-1
						v-2.94C6.65,20.2,7.1,19.75,7.65,19.75z"/>
					<path id="Rectangle-Copy" class="st15" d="M7.65,26.66H27.5c0.55,0,1,0.45,1,1v2.94c0,0.55-0.45,1-1,1H7.65c-0.55,0-1-0.45-1-1
						v-2.94C6.65,27.11,7.1,26.66,7.65,26.66z"/>
					<path id="Rectangle-Copy-6" class="st15" d="M7.65,58.26H27.5c0.55,0,1,0.45,1,1v2.94c0,0.55-0.45,1-1,1H7.65
						c-0.55,0-1-0.45-1-1v-2.94C6.65,58.71,7.1,58.26,7.65,58.26z"/>
					<path id="Rectangle-Copy-3" class="st15" d="M7.65,38.51H27.5c0.55,0,1,0.45,1,1v5.9c0,0.55-0.45,1-1,1H7.65
						c-0.55,0-1-0.45-1-1v-5.9C6.65,38.96,7.1,38.51,7.65,38.51z"/>
					<path id="Rectangle-Copy-4" class="st15" d="M7.65,48.39h8.45c0.55,0,1,0.45,1,1v5.9c0,0.55-0.45,1-1,1H7.65
						c-0.55,0-1-0.45-1-1v-5.9C6.65,48.84,7.1,48.39,7.65,48.39z"/>
					<path id="Rectangle-Copy-5" class="st15" d="M20,48.39h7.5c0.55,0,1,0.45,1,1v5.9c0,0.55-0.45,1-1,1H20c-0.55,0-1-0.45-1-1
						v-5.9C19,48.84,19.45,48.39,20,48.39z"/>
					<path id="Rectangle-Copy-2" class="st16" d="M7.65,31.6H27.5c0.55,0,1,0.45,1,1v2.94c0,0.55-0.45,1-1,1H7.65
						c-0.55,0-1-0.45-1-1V32.6C6.65,32.05,7.1,31.6,7.65,31.6z"/>
					<g id="Oval">
						<g>
							<ellipse id="path-19" class="st5" cx="18.52" cy="72.58" rx="2.38" ry="2.47"/>
						</g>
						<g>
							<ellipse id="path-19_1_" class="st1" cx="18.52" cy="72.58" rx="2.38" ry="2.47"/>
						</g>
					</g>
					<g id="iphone-white">
						<g>
							<g id="body">
								<g>
									<path id="path-22" class="st1" d="M0.49,29.46H0v-5.67h0.49v-1.53H0v-5.67h0.49v-2.74H0v-3.16h0.49V9
										c0-3.12,0.32-4.25,0.93-5.39s1.51-2.04,2.65-2.65s2.27-0.93,5.39-0.93h19.3c3.12,0,4.25,0.32,5.39,0.93
										c1.14,0.61,2.04,1.51,2.65,2.65c0.61,1.14,0.93,2.27,0.93,5.39v60.85c0,3.12-0.32,4.25-0.93,5.39
										c-0.61,1.14-1.51,2.04-2.65,2.65c-1.14,0.61-2.27,0.93-5.39,0.93H9.47c-3.12,0-4.25-0.32-5.39-0.93s-2.04-1.51-2.65-2.65
										s-0.93-2.27-0.93-5.39V29.46z"/>
								</g>
								
									<linearGradient id="SVGID_1_" gradientUnits="userSpaceOnUse" x1="-628.5229" y1="442.577" x2="-628.2935" y2="441.577" gradientTransform="matrix(40.5426 0 0 -81.5928 25496.4082 36109.6367)">
									<stop  offset="0" style="stop-color:#FFFFFF"/>
									<stop  offset="1" style="stop-color:#FEFEFE"/>
								</linearGradient>
								<path class="st17" d="M-0.91,30.86H-1.4V9.27h0.49V9c0-3.06,0.28-4.53,1.1-6.05c0.74-1.38,1.84-2.48,3.22-3.22
									c1.53-0.82,3-1.1,6.05-1.1h19.3c3.06,0,4.53,0.28,6.05,1.1c1.38,0.74,2.48,1.84,3.22,3.22c0.82,1.53,1.1,3,1.1,6.05v60.85
									c0,3.06-0.28,4.53-1.1,6.05c-0.74,1.38-1.84,2.48-3.22,3.22c-1.53,0.82-3,1.1-6.05,1.1H9.47c-3.06,0-4.53-0.28-6.05-1.1
									c-1.38-0.74-2.48-1.84-3.22-3.22c-0.82-1.53-1.1-3-1.1-6.05V30.86z"/>
							</g>
							
								<linearGradient id="screen-frame_1_" gradientUnits="userSpaceOnUse" x1="-627.2603" y1="442.3763" x2="-627.0388" y2="441.3763" gradientTransform="matrix(36.7028 0 0 -77.9885 23037.2363 34500.582)">
								<stop  offset="0" style="stop-color:#FFFFFF"/>
								<stop  offset="1" style="stop-color:#FEFEFE"/>
							</linearGradient>
							<path id="screen-frame" class="st18" d="M9.76,1.67H8.2c-3.31,0-6,2.69-6,6v63.3c0,3.31,2.69,6,6,6h21.73c3.31,0,6-2.69,6-6
								V7.67c0-3.31-2.69-6-6-6h-1.56v3.57H9.76V1.67z M9.69,0.32h18.76c3.12,0,4.25,0.32,5.39,0.93c1.14,0.61,2.04,1.51,2.65,2.65
								c0.61,1.14,0.93,2.27,0.93,5.39v60.04c0,3.12-0.32,4.25-0.93,5.39c-0.61,1.14-1.51,2.04-2.65,2.65
								c-1.14,0.61-2.27,0.93-5.39,0.93H9.69c-3.12,0-4.25-0.32-5.39-0.93s-2.04-1.51-2.65-2.65s-0.93-2.27-0.93-5.39V9.3
								c0-3.12,0.32-4.25,0.93-5.39S3.16,1.87,4.3,1.26S6.57,0.32,9.69,0.32z"/>
							<g id="sensor-camera" transform="translate(16.597237, 2.503792)" class="st19">
								<g id="Group" transform="translate(6.746844, 0.000000)" class="st20">
									<g id="Oval_1_">
										<g>
											<ellipse id="path-25" class="st1" cx="0.54" cy="0.56" rx="1" ry="1"/>
										</g>
										<g>
											<ellipse id="path-25_1_" class="st21" cx="0.54" cy="0.56" rx="1" ry="1"/>
										</g>
										<g>
											<ellipse id="path-25_2_" class="st1" cx="0.54" cy="0.56" rx="1" ry="1"/>
										</g>
									</g>
									<g id="Oval_2_">
										<g>
											<ellipse id="path-28" class="st1" cx="0.54" cy="0.56" rx="1" ry="1"/>
										</g>
										<g>
											<ellipse id="path-28_1_" class="st21" cx="0.54" cy="0.56" rx="1" ry="1"/>
										</g>
										<g>
											<ellipse id="path-28_2_" class="st1" cx="0.54" cy="0.56" rx="1" ry="1"/>
										</g>
									</g>
								</g>
								<g id="Rectangle-2">
									<g>
										<path id="path-31" class="st1" d="M0.5,0.32H4c0.28,0,0.5,0.22,0.5,0.5l0,0c0,0.28-0.22,0.5-0.5,0.5H0.5
											C0.22,1.32,0,1.1,0,0.82l0,0C0,0.55,0.22,0.32,0.5,0.32z"/>
									</g>
									<g>
										<path id="path-31_1_" class="st21" d="M0.5,0.32H4c0.28,0,0.5,0.22,0.5,0.5l0,0c0,0.28-0.22,0.5-0.5,0.5H0.5
											C0.22,1.32,0,1.1,0,0.82l0,0C0,0.55,0.22,0.32,0.5,0.32z"/>
									</g>
									<g>
										<path id="path-31_2_" class="st1" d="M0.5,0.32H4c0.28,0,0.5,0.22,0.5,0.5l0,0c0,0.28-0.22,0.5-0.5,0.5H0.5
											C0.22,1.32,0,1.1,0,0.82l0,0C0,0.55,0.22,0.32,0.5,0.32z"/>
									</g>
								</g>
							</g>
						</g>
					</g>
				</g>
				<rect id="Rectangle_3_" x="7" y="12" class="st22" width="25" height="9"/>
				<rect id="Rectangle-Copy-27" x="7" y="53" class="st14" width="25" height="8"/>
				<rect id="Rectangle-Copy-28" x="7" y="64" class="st22" width="25" height="8"/>
				<rect id="Rectangle-Copy-21" x="7" y="24" class="st22" width="12" height="9"/>
				<rect id="Rectangle-Copy-24" x="7" y="35" class="st22" width="12" height="15"/>
				<rect id="Rectangle-Copy-25" x="21" y="44" class="st22" width="10" height="6"/>
				<polygon id="Rectangle-Copy-22" class="st14" points="21.5,43.5 21.5,24.5 31.5,24.5 31.5,43.5 				"/>
			</g>
		</g>
	</g>
</g>
</svg>
