<?xml version="1.0" encoding="iso-8859-1"?>
<!-- Generator: Adobe Illustrator 19.0.0, SVG Export Plug-In . SVG Version: 6.00 Build 0)  -->
<svg version="1.1" id="Capa_1" xmlns="http://www.w3.org/2000/svg" xmlns:xlink="http://www.w3.org/1999/xlink" x="0px" y="0px"
	 viewBox="0 0 512 512" style="enable-background:new 0 0 512 512;" xml:space="preserve">
<path style="fill:#FFE13C;" d="M8.065,320C2.801,299.544,0,278.099,0,256C0,114.615,114.615,0,256,0
	c73.208,0,139.233,30.736,185.892,80H100v240H8.065z"/>
<path style="fill:#415A87;" d="M506.275,310C481.483,425.449,378.857,512,256,512S30.517,425.449,5.725,310H506.275z"/>
<path style="fill:#5F82C3;" d="M497.911,339.971c-4.12,11.865-9.084,23.334-14.826,34.334H100.013c-5.523,0-10-4.477-10-10V80.013
	c0-5.523,4.477-10,10-10h331.884c12.957,12.257,24.62,25.863,34.796,40.576c-3.888,1.371-6.68,5.067-6.68,9.424v173.25
	c0,22.605,16.049,41.451,37.371,45.795C497.8,339.143,498.05,339.57,497.911,339.971z"/>
<path style="fill:#506EA0;" d="M128,374.292h-28c-5.523,0-10-4.477-10-10V80c0-5.523,4.477-10,10-10h28c-5.523,0-10,4.477-10,10
	v284.292C118,369.815,122.477,374.292,128,374.292z"/>
<path style="fill:#415A87;" d="M490,360c-6.438,13.969-10.889,27.098-21,39.292H90c-16.569,0-30-13.432-30-30V365
	c0-2.762,2.239-5,5-5H490z M330,100c5.523,0,10-4.477,10-10s-4.477-10-10-10s-10,4.477-10,10S324.477,100,330,100z"/>
<path style="fill:#414669;" d="M446.168,379.292c-4.68,6.916-9.693,13.588-15.009,20H90c-15.743,0-28.645-12.129-29.892-27.552
	c5.295,4.696,12.258,7.552,19.892,7.552H446.168z"/>
<path style="fill:#FFE1C3;" d="M466.291,110C495.098,151.414,512,201.729,512,256c0,29.426-4.98,57.685-14.118,84H115
	c-2.761,0-5-2.238-5-5V115c0-2.762,2.239-5,5-5H466.291z"/>
<path style="fill:#FFEBDC;" d="M512,256c0,29.426-4.98,57.685-14.118,84H135c-2.761,0-5-2.238-5-5V115c0-2.762,2.239-5,5-5h331.291
	C495.098,151.414,512,201.729,512,256z"/>
<path style="fill:#FF4B6E;" d="M160,140h324.264C501.997,174.824,512,214.243,512,256c0,4.698-0.136,9.364-0.385,14H160
	c-5.523,0-10-4.477-10-10V150C150,144.477,154.477,140,160,140z"/>
<path style="fill:#FF82A0;" d="M224.724,156.99l5.818,16.36c0.829,2.332,3.494,3.436,5.729,2.373l15.682-7.454
	c3.55-1.688,7.254,2.016,5.566,5.566l-7.454,15.682c-1.063,2.236,0.041,4.9,2.373,5.729l16.36,5.818
	c3.704,1.317,3.704,6.555,0,7.872l-16.36,5.818c-2.332,0.829-3.436,3.494-2.373,5.729l7.454,15.682
	c1.688,3.55-2.016,7.254-5.566,5.566l-15.682-7.454c-2.236-1.063-4.9,0.041-5.729,2.373l-5.818,16.36
	c-1.317,3.704-6.555,3.704-7.872,0l-5.818-16.36c-0.829-2.332-3.494-3.436-5.729-2.373l-15.682,7.454
	c-3.55,1.688-7.254-2.016-5.566-5.566l7.454-15.682c1.063-2.236-0.041-4.9-2.373-5.729l-16.36-5.818
	c-3.704-1.317-3.704-6.555,0-7.872l16.36-5.818c2.332-0.829,3.436-3.494,2.373-5.729l-7.454-15.682
	c-1.688-3.55,2.016-7.254,5.566-5.566l15.682,7.454c2.236,1.063,4.9-0.041,5.729-2.373l5.818-16.36
	C218.169,153.286,223.407,153.286,224.724,156.99z"/>
<path style="fill:#FFC396;" d="M275,310H155c-2.761,0-5-2.239-5-5v-10c0-2.761,2.239-5,5-5h120c2.761,0,5,2.239,5,5v10
	C280,307.761,277.761,310,275,310z"/>
<path style="fill:#82AAF0;" d="M461.406,469.6H320c-11.046,0-20-8.954-20-20V180c0-11.046,8.954-20,20-20h141.406
	c11.046,0,20,8.954,20,20v269.6C481.406,460.646,472.452,469.6,461.406,469.6z"/>
<path style="fill:#6E96DC;" d="M338.7,469.6h-26.606c-6.679,0-12.094-5.415-12.094-12.094V172.094
	c0-6.679,5.415-12.094,12.094-12.094H338.7c-6.679,0-12.094,5.415-12.094,12.094v285.413C326.606,464.185,332.021,469.6,338.7,469.6
	z"/>
<path style="fill:#FFF573;" d="M456.894,438.156H324.513c-5.523,0-10-4.477-10-10V206.281c0-5.523,4.477-10,10-10h132.381
	c5.523,0,10,4.477,10,10v221.875C466.894,433.679,462.417,438.156,456.894,438.156z"/>
<path style="fill:#FFFF91;" d="M460.847,438.156H338.7c-3.34,0-6.047-2.707-6.047-6.047V202.328c0-3.34,2.707-6.047,6.047-6.047
	h122.147c3.34,0,6.047,2.707,6.047,6.047v229.781C466.894,435.449,464.186,438.156,460.847,438.156z"/>
<path style="fill:#82AAF0;" d="M405.82,447.227c0,8.349-6.768,15.117-15.117,15.117s-15.117-6.768-15.117-15.117
	s6.768-15.117,15.117-15.117S405.82,438.878,405.82,447.227z"/>
<path style="fill:#6E96DC;" d="M399.773,447.227c0,5.009-4.061,9.07-9.07,9.07s-9.07-4.061-9.07-9.07s4.061-9.07,9.07-9.07
	S399.773,442.217,399.773,447.227z M402.797,172.094h-24.188c-3.34,0-6.047,2.707-6.047,6.047s2.707,6.047,6.047,6.047h24.188
	c3.34,0,6.047-2.707,6.047-6.047S406.136,172.094,402.797,172.094z"/>
<path style="fill:#F7D139;" d="M450.703,350h-120c-2.761,0-5-2.239-5-5V215c0-2.761,2.239-5,5-5h120c2.761,0,5,2.239,5,5v130
	C455.703,347.761,453.465,350,450.703,350z"/>
<path style="fill:#FFF573;" d="M394.639,231.99l5.818,16.36c0.829,2.332,3.494,3.436,5.729,2.373l15.682-7.454
	c3.55-1.688,7.254,2.016,5.566,5.566l-7.454,15.682c-1.063,2.236,0.041,4.9,2.373,5.729l16.36,5.818
	c3.704,1.317,3.704,6.555,0,7.872l-16.36,5.818c-2.332,0.829-3.436,3.494-2.373,5.729l7.454,15.682
	c1.688,3.55-2.016,7.254-5.566,5.566l-15.682-7.454c-2.236-1.063-4.9,0.041-5.729,2.373l-5.818,16.36
	c-1.317,3.704-6.555,3.704-7.872,0l-5.818-16.36c-0.829-2.332-3.494-3.436-5.729-2.373l-15.682,7.454
	c-3.55,1.688-7.254-2.016-5.566-5.566l7.454-15.682c1.063-2.236-0.041-4.9-2.373-5.729l-16.36-5.818
	c-3.704-1.317-3.704-6.555,0-7.872l16.36-5.818c2.332-0.829,3.436-3.494,2.373-5.729l-7.454-15.682
	c-1.688-3.55,2.016-7.254,5.566-5.566l15.682,7.454c2.236,1.063,4.9-0.041,5.729-2.373l5.818-16.36
	C388.084,228.286,393.322,228.286,394.639,231.99z"/>
<path style="fill:#FFEB50;" d="M444.203,375v10c0,2.761-2.239,5-5,5h-97c-2.761,0-5-2.239-5-5v-10c0-2.761,2.239-5,5-5h97
	C441.965,370,444.203,372.239,444.203,375z M416.406,400H365c-2.761,0-5,2.239-5,5v10c0,2.761,2.239,5,5,5h51.406
	c2.761,0,5-2.239,5-5v-10C421.406,402.239,419.168,400,416.406,400z"/>
<g>
</g>
<g>
</g>
<g>
</g>
<g>
</g>
<g>
</g>
<g>
</g>
<g>
</g>
<g>
</g>
<g>
</g>
<g>
</g>
<g>
</g>
<g>
</g>
<g>
</g>
<g>
</g>
<g>
</g>
</svg>
