<?xml version="1.0" encoding="utf-8"?>
<!-- Generator: Adobe Illustrator 24.0.0, SVG Export Plug-In . SVG Version: 6.00 Build 0)  -->
<svg version="1.1" id="Calque_1" xmlns="http://www.w3.org/2000/svg" xmlns:xlink="http://www.w3.org/1999/xlink" x="0px" y="0px"
	 viewBox="0 0 95 24" style="enable-background:new 0 0 95 24;" xml:space="preserve">
<style type="text/css">
	.st0{fill:#7C7C7C;}
	.st1{fill:#3B5998;}
	.st2{fill:#757575;}
	.st3{fill:#4885ED;}
	.st4{fill:#DB3236;}
	.st5{fill:#F4C20D;}
	.st6{fill:#3CBA54;}
</style>
<g>
	<g>
		<path class="st0" d="M79.87,9.68c0.37-0.07,0.52,0.11,0.62,0.45c0.53,1.82,1.09,3.63,1.64,5.45c0.27,0.9,0.55,1.8,0.82,2.7
			c0.05,0.17,0.15,0.41-0.13,0.45c-0.25,0.03-0.59,0.18-0.72-0.2c-0.18-0.53-0.33-1.06-0.47-1.6c-0.07-0.28-0.19-0.4-0.49-0.39
			c-0.85,0.02-1.7,0.02-2.55,0c-0.24,0-0.37,0.06-0.43,0.3c-0.15,0.54-0.3,1.07-0.48,1.6c-0.04,0.11-0.17,0.26-0.27,0.28
			c-0.21,0.03-0.44,0-0.66-0.03c-0.02,0-0.04-0.17-0.01-0.24c0.48-1.59,0.96-3.17,1.45-4.76c0.28-0.9,0.56-1.8,0.84-2.69
			c0.09-0.3,0.18-0.61,0.26-0.92C79.35,9.75,79.54,9.6,79.87,9.68z M79.82,15.85c0.39,0,0.77,0,1.16,0c0.16,0,0.29-0.04,0.23-0.26
			c-0.31-1.09-0.62-2.19-0.93-3.29c-0.09-0.33-0.18-0.67-0.29-0.99c-0.03-0.1-0.13-0.18-0.2-0.26c-0.04,0.09-0.09,0.18-0.11,0.28
			c-0.05,0.18-0.07,0.36-0.12,0.54c-0.36,1.21-0.73,2.41-1.09,3.62c-0.08,0.25,0,0.38,0.28,0.37C79.1,15.84,79.46,15.85,79.82,15.85
			z"/>
		<path class="st0" d="M88.53,14.27c0,1.34,0,2.69,0,4.03c0,0.3-0.08,0.49-0.42,0.49c-0.3,0-0.49-0.1-0.42-0.46
			c0.01-0.06-0.03-0.14-0.05-0.21c-0.06,0.04-0.13,0.07-0.19,0.11c-0.38,0.23-0.73,0.57-1.14,0.67c-0.82,0.21-1.45-0.24-1.91-0.88
			c-0.71-1-0.83-2.15-0.63-3.32c0.1-0.55,0.28-1.12,0.54-1.61c0.71-1.31,2.45-1.25,3.11-0.38c0.05,0.07,0.14,0.1,0.22,0.14
			c0.02-0.1,0.06-0.19,0.06-0.29c0-0.83,0-1.65-0.02-2.48c-0.01-0.32,0.16-0.42,0.44-0.43c0.3,0,0.39,0.16,0.39,0.43
			C88.52,11.5,88.52,12.89,88.53,14.27C88.53,14.27,88.53,14.27,88.53,14.27z M87.71,15.48C87.71,15.48,87.71,15.48,87.71,15.48
			c0-0.45,0.01-0.9-0.01-1.36c0-0.16-0.02-0.33-0.09-0.46c-0.29-0.6-1.02-1.01-1.63-0.94c-0.55,0.06-1.17,0.68-1.3,1.32
			c-0.18,0.93-0.25,1.88,0,2.8c0.25,0.94,0.77,1.45,1.72,1.35c0.74-0.08,1.31-0.81,1.3-1.67C87.71,16.17,87.71,15.82,87.71,15.48z"
			/>
		<path class="st0" d="M91.94,19.02c-0.77-0.04-1.38-0.39-1.94-0.84c-0.24-0.19-0.21-0.37,0-0.57c0.22-0.21,0.35-0.12,0.52,0.08
			c0.42,0.5,1.54,0.7,2.1,0.4c0.68-0.36,0.8-1.36,0.18-1.81c-0.47-0.34-1.02-0.56-1.54-0.83c-0.58-0.3-1.07-0.66-1.21-1.38
			c-0.15-0.79,0.29-1.68,1.09-1.9c0.87-0.24,1.72-0.21,2.45,0.42c0.09,0.07,0.21,0.19,0.2,0.27c-0.02,0.16-0.1,0.32-0.2,0.45
			c-0.02,0.03-0.26-0.06-0.35-0.15c-0.54-0.48-1.29-0.62-1.89-0.32c-0.71,0.35-0.81,1.18-0.17,1.65c0.36,0.26,0.8,0.41,1.18,0.64
			c0.41,0.24,0.85,0.47,1.17,0.8c0.85,0.86,0.52,2.31-0.61,2.76C92.59,18.84,92.26,18.92,91.94,19.02z"/>
	</g>
	<g id="XMLID_60_">
		<path id="XMLID_54_" class="st1" d="M40.55,9.64c-1.08-0.12-2.02,0.21-2.81,1.16v-0.3V5.38V5.32V4.98l-2.86,0.35v13.5h2.86v-0.8
			c0.39,0.28,0.76,0.61,1.2,0.76c1.67,0.6,3.87,0.11,4.64-2.12c0.49-1.43,0.48-2.9,0.11-4.35C43.28,10.71,42.21,9.82,40.55,9.64z
			 M40.98,15.49c-0.13,0.89-0.83,1.36-1.68,1.29c-0.21-0.02-0.4-0.06-0.57-0.13c-0.68-0.39-0.88-1.04-0.94-1.45l0,0
			c-0.05-0.63-0.1-1.96,0.21-2.58c0.26-0.48,0.72-0.74,1.33-0.76c0.86-0.03,1.51,0.4,1.64,1.27C41.08,13.91,41.09,14.72,40.98,15.49
			z"/>
		<path id="XMLID_50_" class="st1" d="M50.7,9.81c-0.99-0.27-2-0.26-2.99,0c-1.49,0.4-2.48,1.34-2.8,2.83
			c-0.18,0.82-0.21,1.68-0.16,2.52c0.11,1.91,1.29,3.28,3.13,3.7l0.08,0.02h0l0.01,0c0.07,0.01,0.14,0.03,0.21,0.04l0.07,0.01h0
			c0.09,0.02,0.2,0.03,0.31,0.04c0.36,0.04,0.82,0.07,1.2,0.02l0.01,0l0.06,0c1.9-0.1,3.34-1.3,3.76-3.13
			c0.23-1.01,0.23-2.02,0.01-3.03C53.23,11.25,52.27,10.23,50.7,9.81z M50.82,15.35c-0.01,0.06-0.02,0.12-0.03,0.18
			c-0.19,0.84-0.8,1.3-1.62,1.26c-0.88-0.04-1.48-0.55-1.57-1.43c-0.06-0.64-0.07-1.3-0.01-1.94c0.08-1.01,0.72-1.57,1.67-1.55
			c0.78,0.02,1.34,0.46,1.54,1.21C50.97,13.83,50.83,15.17,50.82,15.35z"/>
		<path id="XMLID_49_" class="st1" d="M7.72,9.76H5.67V8.41c0.15-1.28,2.27-1.04,2.27-1.04l0-0.09l0-0.01V5.16h0v0h0
			c-0.07-0.02-4.22-1-5.05,2.16l0,0L2.89,7.33c-0.13,0.39-0.12,2.2-0.12,2.43H1v2.42h1.88v6.57h2.74v-6.57h2.1l0.24-2.42H7.72z"/>
		<path id="XMLID_46_" class="st1" d="M14.25,10.92c-0.03-0.04-0.07-0.07-0.1-0.1v0l-0.01-0.01c-0.04-0.04-0.07-0.07-0.07-0.07
			c-0.64-0.66-0.89-0.82-1.39-0.97c-1.94-0.57-3.83,0.45-4.43,2.4c-0.37,1.2-0.37,2.44-0.16,3.65c0.47,2.63,2.43,3.52,4.51,3.08
			c0.64-0.13,1.12-0.53,1.56-1.09c0,0,0.04-0.05,0.09-0.14v1.16h2.67V9.77h-2.67L14.25,10.92L14.25,10.92z M14.01,15.48
			c-0.09,0.84-0.77,1.34-1.57,1.31c-0.82-0.03-1.36-0.47-1.54-1.26c-0.21-1.12,0.04-2.45,0.06-2.56c0.21-0.75,0.76-1.12,1.56-1.11
			c0.79,0.02,1.4,0.48,1.48,1.3C14.09,13.93,14.09,14.71,14.01,15.48z"/>
		<path id="XMLID_45_" class="st1" d="M25.08,18.18c-0.12-0.45-0.27-0.9-0.4-1.33l-0.13-0.48c0,0-3.35,1.61-3.87-1.45
			c-0.05-0.5-0.03-1.02,0.04-1.52c0.13-0.94,0.7-1.44,1.61-1.53c0.31-0.03,0.63-0.01,0.93,0.04c0.42,0.07,0.82,0.2,1.27,0.31
			c0.16-0.48,0.32-0.96,0.47-1.44c0.02-0.08,0.04-0.14,0.06-0.2h0l0.08-0.29c-0.02-0.04-0.06-0.08-0.13-0.12v0
			c-0.08-0.06-0.21-0.12-0.41-0.19c-0.08-0.03-0.16-0.06-0.25-0.08c-0.07-0.02-0.12-0.04-0.12-0.04h0c-0.88-0.25-1.78-0.27-2.7-0.17
			c-1.93,0.2-3.25,1.35-3.61,3.23c-0.19,0.99-0.18,1.99,0.04,2.99c0.33,1.49,1.23,2.45,2.7,2.88c0.96,0.28,1.94,0.29,2.91,0.14
			c0.41-0.06,1-0.28,1.42-0.43l0.16-0.06L25.08,18.18L25.08,18.18z"/>
		<path id="XMLID_42_" class="st1" d="M33.9,14.64c-0.01-0.63,0-1.26-0.09-1.87c-0.24-1.69-1.27-2.76-2.94-3.04
			c-0.63-0.11-1.31-0.09-1.95-0.03c-1.77,0.17-3.11,1.27-3.38,2.92c-0.17,1-0.19,2.07-0.05,3.08c0.2,1.52,0.94,2.48,2.22,2.95h0
			l0.02,0l0,0c0.58,0.17,3.44,0.92,5.95-0.34l-0.1-0.37l0,0c-0.12-0.49-0.26-0.98-0.39-1.47l-0.01-0.05c0,0-0.05,0.02-0.15,0.05
			l-0.01,0c-0.11,0.03-0.22,0.06-0.33,0.1l-0.06,0.02c-0.38,0.11-0.93,0.24-1.5,0.31c-0.48,0.05-0.97,0.05-1.46,0.01
			c-0.8-0.13-1.41-0.56-1.38-1.57h0.46c1.57,0,3.13,0,4.7,0c0.04,0,0.07,0,0.11,0l0,0l0.35-0.01v-0.1L33.9,14.64z M31.32,13.4h-3.09
			c0.02-0.62,0.09-1.19,0.64-1.54c0.58-0.37,1.22-0.38,1.82-0.05C31.29,12.15,31.34,12.75,31.32,13.4z"/>
		<polygon id="XMLID_41_" class="st1" points="72.94,9.87 69.9,9.87 67.26,13.99 67.26,5.39 67.26,5.33 67.26,4.98 64.4,5.33 
			64.4,18.83 67.26,18.83 67.26,14.7 69.9,18.84 72.94,18.84 70.08,14.34 		"/>
		<path id="XMLID_35_" class="st1" d="M60.46,9.81c-0.99-0.27-2-0.26-2.99,0c-1.49,0.4-2.48,1.34-2.8,2.83
			c-0.18,0.82-0.21,1.68-0.16,2.52c0.11,1.91,1.29,3.28,3.13,3.7l0.08,0.02h0l0.01,0c0.07,0.01,0.14,0.03,0.21,0.04L58,18.93l0,0
			c0.09,0.02,0.2,0.03,0.31,0.04c0.36,0.04,0.82,0.07,1.2,0.02l0.01,0l0.06,0c1.9-0.1,3.34-1.3,3.76-3.13
			c0.23-1.01,0.23-2.02,0.01-3.03C62.99,11.25,62.04,10.23,60.46,9.81z M60.58,15.34c-0.01,0.06-0.02,0.12-0.03,0.18
			c-0.19,0.84-0.8,1.3-1.62,1.26c-0.88-0.04-1.48-0.55-1.57-1.43c-0.06-0.64-0.07-1.3-0.01-1.94c0.08-1.01,0.72-1.57,1.67-1.55
			c0.78,0.02,1.34,0.46,1.54,1.21C60.73,13.83,60.6,15.17,60.58,15.34z"/>
	</g>
</g>
</svg>
