<?xml version="1.0" encoding="utf-8"?>
<!-- Generator: Adobe Illustrator 24.0.0, SVG Export Plug-In . SVG Version: 6.00 Build 0)  -->
<svg version="1.1" id="Calque_1" xmlns="http://www.w3.org/2000/svg" xmlns:xlink="http://www.w3.org/1999/xlink" x="0px" y="0px"
	 viewBox="0 0 92 24" style="enable-background:new 0 0 92 24;" xml:space="preserve">
<style type="text/css">
	.st0{fill:#7C7C7C;}
	.st1{fill:#3B5998;}
	.st2{fill:#757575;}
	.st3{fill:#4885ED;}
	.st4{fill:#DB3236;}
	.st5{fill:#F4C20D;}
	.st6{fill:#3CBA54;}
</style>
<g>
	<g>
		<path class="st2" d="M68.69,16.84L72.39,7h1.43l3.7,9.84h-1.4l-0.95-2.66h-4.12l-0.95,2.66H68.69z M71.46,13h3.28l-1.6-4.43h-0.06
			L71.46,13z"/>
		<path class="st2" d="M78.81,16.03c-0.62-0.7-0.92-1.54-0.92-2.55c0-0.98,0.31-1.82,0.92-2.55c0.64-0.7,1.37-1.04,2.27-1.04
			c0.5,0,0.95,0.11,1.35,0.31c0.42,0.22,0.73,0.48,0.95,0.84h0.06l-0.06-0.92V7h1.26v9.84h-1.21v-0.92h-0.06
			c-0.22,0.34-0.53,0.62-0.95,0.84c-0.42,0.22-0.87,0.31-1.35,0.31C80.18,17.06,79.42,16.73,78.81,16.03 M82.79,15.24
			c0.42-0.45,0.62-1.04,0.62-1.77c0-0.7-0.2-1.29-0.62-1.74c-0.39-0.45-0.9-0.67-1.51-0.67s-1.12,0.22-1.51,0.67
			c-0.42,0.45-0.62,1.04-0.62,1.74s0.2,1.29,0.62,1.74c0.42,0.45,0.92,0.67,1.51,0.67C81.89,15.91,82.39,15.69,82.79,15.24"/>
		<path class="st2" d="M90.47,16.45c-0.5,0.39-1.15,0.62-1.93,0.62c-0.67,0-1.26-0.17-1.79-0.53c-0.5-0.36-0.87-0.81-1.09-1.4
			l1.12-0.48c0.17,0.39,0.39,0.73,0.73,0.95c0.31,0.22,0.67,0.34,1.04,0.34c0.39,0,0.73-0.08,1.01-0.25
			c0.28-0.17,0.39-0.39,0.39-0.62c0-0.42-0.34-0.76-0.98-0.95l-1.15-0.28c-1.32-0.34-1.96-0.95-1.96-1.91
			c0-0.62,0.25-1.09,0.76-1.49c0.5-0.36,1.15-0.56,1.91-0.56c0.59,0,1.12,0.14,1.63,0.42c0.48,0.28,0.81,0.67,1.01,1.15l-1.12,0.48
			c-0.14-0.28-0.34-0.5-0.62-0.67c-0.28-0.17-0.62-0.25-0.98-0.25c-0.34,0-0.62,0.08-0.9,0.25c-0.25,0.17-0.39,0.36-0.39,0.62
			c0,0.39,0.36,0.67,1.09,0.81l1.01,0.25c1.35,0.34,1.99,1.01,1.99,2.02C91.25,15.55,90.97,16.05,90.47,16.45"/>
	</g>
	<g>
		<path id="XMLID_5_" class="st3" d="M16.59,8.9h-7.5v2.22h5.32c-0.26,3.12-2.85,4.45-5.32,4.45c-3.13,0-5.86-2.46-5.86-5.92
			c0-3.36,2.61-5.97,5.88-5.97c2.52,0,4.01,1.6,4.01,1.6l1.55-1.62c0,0-2.01-2.22-5.65-2.22c-4.65,0-8.24,3.93-8.24,8.15
			c0.02,4.16,3.4,8.2,8.38,8.2c4.38,0,7.59-2.99,7.59-7.43C16.73,9.45,16.59,8.9,16.59,8.9L16.59,8.9z"/>
		<path id="XMLID_4_" class="st4" d="M22.73,7.3c-3.08,0-5.28,2.41-5.28,5.21c0,2.85,2.13,5.3,5.32,5.3c2.87,0,5.23-2.2,5.23-5.23
			C28.01,9.09,25.27,7.3,22.73,7.3z M22.77,9.36c1.51,0,2.94,1.21,2.94,3.19c0,1.94-1.43,3.19-2.96,3.19c-1.67,0-2.99-1.34-2.99-3.2
			C19.75,10.71,21.06,9.36,22.77,9.36z"/>
		<path id="XMLID_3_" class="st5" d="M34.23,7.3c-3.08,0-5.28,2.41-5.28,5.21c0,2.85,2.13,5.3,5.32,5.3c2.87,0,5.23-2.2,5.23-5.23
			C39.49,9.09,36.74,7.3,34.23,7.3z M34.24,9.36c1.51,0,2.94,1.21,2.94,3.19c0,1.94-1.43,3.19-2.96,3.19c-1.67,0-2.99-1.34-2.99-3.2
			C31.25,10.71,32.55,9.36,34.24,9.36z"/>
		<path id="XMLID_55_" class="st3" d="M45.5,7.3c-2.82,0-5.04,2.46-5.04,5.25c0,3.17,2.57,5.26,5,5.26c1.5,0,2.29-0.6,2.89-1.29
			v1.04c0,1.81-1.11,2.91-2.76,2.91c-1.6,0-2.41-1.2-2.69-1.87l-2.02,0.85c0.72,1.51,2.17,3.1,4.72,3.1c2.8,0,4.95-1.76,4.95-5.48
			V7.63h-2.2v0.9C47.64,7.77,46.73,7.3,45.5,7.3L45.5,7.3z M45.69,9.36c1.39,0,2.8,1.18,2.8,3.2c0,2.06-1.43,3.19-2.83,3.19
			c-1.51,0-2.91-1.21-2.91-3.17C42.75,10.56,44.21,9.36,45.69,9.36L45.69,9.36z"/>
		<path id="XMLID_2_" class="st4" d="M60.32,7.28c-2.66,0-4.89,2.11-4.89,5.25c0,3.31,2.5,5.26,5.16,5.26c2.22,0,3.59-1.21,4.4-2.31
			l-1.81-1.21c-0.48,0.74-1.27,1.44-2.57,1.44c-1.48,0-2.15-0.81-2.57-1.58l7.04-2.92l-0.37-0.86C64.02,8.69,62.42,7.28,60.32,7.28
			L60.32,7.28z M60.41,9.31c0.97,0,1.66,0.51,1.94,1.13l-4.7,1.97C57.45,10.87,58.89,9.31,60.41,9.31z"/>
		<rect id="XMLID_1_" x="52.06" y="2" class="st6" width="2.31" height="15.49"/>
	</g>
</g>
</svg>
