<?xml version="1.0" encoding="utf-8"?>
<!-- Generator: Adobe Illustrator 24.0.0, SVG Export Plug-In . SVG Version: 6.00 Build 0)  -->
<svg version="1.1" id="Calque_1" xmlns="http://www.w3.org/2000/svg" xmlns:xlink="http://www.w3.org/1999/xlink" x="0px" y="0px"
	 viewBox="0 0 205 136" style="enable-background:new 0 0 205 136;" xml:space="preserve">
<style type="text/css">
	.st0{opacity:0.1;}
	.st1{fill-rule:evenodd;clip-rule:evenodd;}
	.st2{fill-rule:evenodd;clip-rule:evenodd;fill:#F6F6F6;}
	.st3{fill-rule:evenodd;clip-rule:evenodd;fill:url(#path-5_3_);fill-opacity:0.1;}
	.st4{fill:none;stroke:#FFFFFF;stroke-width:3.75;stroke-opacity:0.25;}
	.st5{fill-rule:evenodd;clip-rule:evenodd;fill:#FFFFFF;}
	.st6{fill-rule:evenodd;clip-rule:evenodd;fill:url(#bottom_1_);}
	.st7{fill-rule:evenodd;clip-rule:evenodd;fill:#F2F2F2;}
	.st8{fill-rule:evenodd;clip-rule:evenodd;fill:url(#path-13_3_);fill-opacity:0.02;}
	.st9{fill-rule:evenodd;clip-rule:evenodd;fill:#FAFAFA;}
	.st10{fill-rule:evenodd;clip-rule:evenodd;fill:url(#path-18_4_);fill-opacity:0.03;}
	.st11{fill-rule:evenodd;clip-rule:evenodd;fill:url(#path-18_8_);fill-opacity:0.04;}
	.st12{fill-rule:evenodd;clip-rule:evenodd;fill:url(#path-18_9_);fill-opacity:0.3;}
	.st13{fill-rule:evenodd;clip-rule:evenodd;fill:#F7F7F7;}
	.st14{fill-rule:evenodd;clip-rule:evenodd;fill:#1D0E46;}
	.st15{fill-rule:evenodd;clip-rule:evenodd;fill:#979696;}
	.st16{fill-rule:evenodd;clip-rule:evenodd;fill:#82377C;}
	.st17{fill-rule:evenodd;clip-rule:evenodd;fill:url(#SVGID_1_);stroke:#000000;stroke-width:2.8;stroke-opacity:0.04;}
	.st18{fill-rule:evenodd;clip-rule:evenodd;fill:url(#screen-frame_1_);stroke:#000000;stroke-width:4.8;stroke-opacity:0.03;}
	.st19{opacity:0.6;}
	.st20{opacity:0.75;}
	.st21{fill-rule:evenodd;clip-rule:evenodd;fill:#9092A5;}
</style>
<title>Group 20</title>
<desc>Created with Sketch.</desc>
<g id="Page-1">
	<g id="AdDesktop" transform="translate(-483.000000, -147.000000)">
		<g id="Group-20" transform="translate(509.000000, 161.000000)">
			<g id="Group-6">
				<g id="Group-3">
					<g id="shadow" class="st0">
						<g>
							<path id="path-1" class="st1" d="M153,87.3c0,0-5.05,1.44-17.68,1.44c0,0-42.29,0.26-58.82,0.26s-58.82-0.26-58.82-0.26
								C5.05,88.74,0,87.3,0,87.3H153z"/>
						</g>
					</g>
					<g id="top">
						<g>
							<path id="path-5" class="st1" d="M18.75,0h115.51c2.38,0,4.38,2.03,4.38,4.45v78.4c0,2.42-0.01,4.45-2.43,4.45H17.05
								c-2.45,0-2.67-2.03-2.67-4.45V4.45C14.37,2.03,16.37,0,18.75,0L18.75,0z"/>
						</g>
						<g>
							<path id="path-5_1_" class="st2" d="M18.75,0h115.51c2.38,0,4.38,2.03,4.38,4.45v78.4c0,2.42-0.01,4.45-2.43,4.45H17.05
								c-2.45,0-2.67-2.03-2.67-4.45V4.45C14.37,2.03,16.37,0,18.75,0L18.75,0z"/>
						</g>
						<g>
							
								<linearGradient id="path-5_3_" gradientUnits="userSpaceOnUse" x1="-514.5325" y1="469.8465" x2="-514.5325" y2="469.8929" gradientTransform="matrix(124.2597 0 0 -87.3048 64012.1406 41107.1367)">
								<stop  offset="0" style="stop-color:#000000"/>
								<stop  offset="1" style="stop-color:#000000;stop-opacity:0"/>
							</linearGradient>
							<path id="path-5_2_" class="st3" d="M18.75,0h115.51c2.38,0,4.38,2.03,4.38,4.45v78.4c0,2.42-0.01,4.45-2.43,4.45H17.05
								c-2.45,0-2.67-2.03-2.67-4.45V4.45C14.37,2.03,16.37,0,18.75,0L18.75,0z"/>
						</g>
						<path class="st4" d="M18.75,1.87c-1.34,0-2.5,1.19-2.5,2.58v78.4c0,2.26,0.14,2.58,0.8,2.58H136.2c0.51,0,0.56-0.13,0.56-2.58
							V4.45c0-1.39-1.17-2.58-2.5-2.58H18.75z"/>
					</g>
					<g id="screen">
						<polygon id="path-7_1_" class="st5" points="17.75,5.93 110.23,5.93 134.4,5.93 134.4,78.83 17.75,78.83 						"/>
					</g>
					<g id="screen_1_">
					</g>
					
						<linearGradient id="bottom_1_" gradientUnits="userSpaceOnUse" x1="-515.2778" y1="369.7771" x2="-515.2778" y2="370.7745" gradientTransform="matrix(153 0 0 -3.3905 78914 1342.7102)">
						<stop  offset="0" style="stop-color:#D0D0D0"/>
						<stop  offset="1" style="stop-color:#E7E7E7"/>
					</linearGradient>
					<path id="bottom" class="st6" d="M153,85.61c0,0-5.05,2.88-17.63,2.71C135.32,88.48,93.02,89,76.62,89
						c-16.65,0-58.94-0.52-59-0.68C5.05,88.48,0,85.61,0,85.61H153z"/>
					<g id="bottomfront">
						<g>
							<rect id="path-13" y="84.76" class="st7" width="153" height="1"/>
						</g>
						<g>
							
								<linearGradient id="path-13_3_" gradientUnits="userSpaceOnUse" x1="-514.7778" y1="121.3898" x2="-515.7778" y2="121.3898" gradientTransform="matrix(153 0 0 -1 78914 206.6517)">
								<stop  offset="0" style="stop-color:#000000"/>
								<stop  offset="0.4965" style="stop-color:#FFFFFF;stop-opacity:0.5"/>
								<stop  offset="1" style="stop-color:#000000"/>
							</linearGradient>
							<rect id="path-13_1_" y="84.76" class="st8" width="153" height="1"/>
						</g>
						<g>
							<rect id="path-13_2_" y="84.76" class="st1" width="153" height="1"/>
						</g>
					</g>
					<g id="shadows">
						<g>
							<path id="path-18" class="st9" d="M76.92,87.3c-5.76,0-13.71-0.28-15.22-0.85v-1.7h30.43v1.7
								C90.63,87.02,82.68,87.3,76.92,87.3z"/>
						</g>
						<g>
							
								<linearGradient id="path-18_4_" gradientUnits="userSpaceOnUse" x1="-502.2994" y1="336.0492" x2="-502.2994" y2="335.0698" gradientTransform="matrix(30.4309 0 0 -2.5429 15362.3643 939.341)">
								<stop  offset="0" style="stop-color:#000000"/>
								<stop  offset="1" style="stop-color:#999999"/>
							</linearGradient>
							<path id="path-18_1_" class="st10" d="M76.92,87.3c-5.76,0-13.71-0.28-15.22-0.85v-1.7h30.43v1.7
								C90.63,87.02,82.68,87.3,76.92,87.3z"/>
						</g>
						<g>
							
								<linearGradient id="path-18_8_" gradientUnits="userSpaceOnUse" x1="-502.2994" y1="335.5698" x2="-502.2994" y2="336.0698" gradientTransform="matrix(30.4309 0 0 -2.5429 15362.3643 939.341)">
								<stop  offset="0" style="stop-color:#000000;stop-opacity:0"/>
								<stop  offset="1" style="stop-color:#000000"/>
							</linearGradient>
							<path id="path-18_2_" class="st11" d="M76.92,87.3c-5.76,0-13.71-0.28-15.22-0.85v-1.7h30.43v1.7
								C90.63,87.02,82.68,87.3,76.92,87.3z"/>
						</g>
						<g>
							
								<linearGradient id="path-18_9_" gradientUnits="userSpaceOnUse" x1="-502.2994" y1="335.8619" x2="-502.2994" y2="335.0698" gradientTransform="matrix(30.4309 0 0 -2.5429 15362.3643 939.341)">
								<stop  offset="0" style="stop-color:#FFFFFF;stop-opacity:0"/>
								<stop  offset="0" style="stop-color:#FFFFFF;stop-opacity:0"/>
								<stop  offset="1" style="stop-color:#FFFFFF"/>
							</linearGradient>
							<path id="path-18_3_" class="st12" d="M76.92,87.3c-5.76,0-13.71-0.28-15.22-0.85v-1.7h30.43v1.7
								C90.63,87.02,82.68,87.3,76.92,87.3z"/>
						</g>
					</g>
				</g>
				<rect id="Rectangle" x="25" y="14" class="st13" width="104" height="5"/>
				<rect id="Rectangle-Copy-45" x="25" y="24" class="st13" width="104" height="5"/>
				<rect id="Rectangle-Copy-46" x="25" y="34" class="st14" width="104" height="5"/>
				<rect id="Rectangle-Copy-49" x="25" y="59" class="st13" width="104" height="6"/>
				<rect id="Rectangle-Copy-50" x="25" y="70" class="st13" width="104" height="5"/>
				<rect id="Rectangle-Copy-47" x="25" y="43" class="st14" width="52" height="11"/>
				<rect id="Rectangle-Copy-48" x="79" y="43" class="st14" width="49" height="11"/>
			</g>
			<g id="Group-4" transform="translate(121.000000, 28.000000)">
				<path id="Rectangle_1_" class="st15" d="M14,9.36h7c7.18,0,13,5.82,13,13v41.6c0,7.18-5.82,13-13,13h-7c-7.18,0-13-5.82-13-13
					v-41.6C1,15.18,6.82,9.36,14,9.36z"/>
				<path id="Rectangle_2_" class="st5" d="M9,15.6h19c2.21,0,4,1.79,4,4v41.92c0,2.21-1.79,4-4,4H9c-2.21,0-4-1.79-4-4V19.6
					C5,17.39,6.79,15.6,9,15.6z"/>
				<path id="Rectangle_3_" class="st15" d="M7,19.76h20c0.55,0,1,0.45,1,1v2.16c0,0.55-0.45,1-1,1H7c-0.55,0-1-0.45-1-1v-2.16
					C6,20.21,6.45,19.76,7,19.76z"/>
				<path id="Rectangle-Copy" class="st15" d="M7,27.04h20c0.55,0,1,0.45,1,1v2.16c0,0.55-0.45,1-1,1H7c-0.55,0-1-0.45-1-1v-2.16
					C6,27.49,6.45,27.04,7,27.04z"/>
				<path id="Rectangle-Copy-6" class="st15" d="M7,59.28h20c0.55,0,1,0.45,1,1v2.16c0,0.55-0.45,1-1,1H7c-0.55,0-1-0.45-1-1v-2.16
					C6,59.73,6.45,59.28,7,59.28z"/>
				<path id="Rectangle-Copy-3" class="st15" d="M7,37.44h20c0.55,0,1,0.45,1,1v7.36c0,0.55-0.45,1-1,1H7c-0.55,0-1-0.45-1-1v-7.36
					C6,37.89,6.45,37.44,7,37.44z"/>
				<path id="Rectangle-Copy-4" class="st15" d="M8,47.84h8c0.55,0,1,0.45,1,1v7.36c0,0.55-0.45,1-1,1H8c-0.55,0-1-0.45-1-1v-7.36
					C7,48.29,7.45,47.84,8,47.84z"/>
				<path id="Rectangle-Copy-5" class="st15" d="M18,47.84h8c0.55,0,1,0.45,1,1v7.36c0,0.55-0.45,1-1,1h-8c-0.55,0-1-0.45-1-1v-7.36
					C17,48.29,17.45,47.84,18,47.84z"/>
				<path id="Rectangle-Copy-2" class="st16" d="M7,32.24h20c0.55,0,1,0.45,1,1v2.16c0,0.55-0.45,1-1,1H7c-0.55,0-1-0.45-1-1v-2.16
					C6,32.69,6.45,32.24,7,32.24z"/>
				<g id="Oval">
					<g>
						<ellipse id="path-19" class="st5" cx="17" cy="70.72" rx="2" ry="2.08"/>
					</g>
					<g>
						<ellipse id="path-19_1_" class="st1" cx="17" cy="70.72" rx="2" ry="2.08"/>
					</g>
				</g>
				<g id="iphone-white">
					<g>
						<g id="body">
							<g>
								<path id="path-22" class="st1" d="M0.48,29.09H0v-5.6h0.48v-1.52H0v-5.6h0.48v-2.71H0v-3.12h0.48V9
									c0-3.12,0.32-4.25,0.93-5.39s1.51-2.04,2.65-2.65s2.27-0.93,5.39-0.93h18.32c3.12,0,4.25,0.32,5.39,0.93
									s2.04,1.51,2.65,2.65c0.61,1.14,0.93,2.27,0.93,5.39v59.85c0,3.12-0.32,4.25-0.93,5.39c-0.61,1.14-1.51,2.04-2.65,2.65
									s-2.27,0.93-5.39,0.93H9.46c-3.12,0-4.25-0.32-5.39-0.93s-2.04-1.51-2.65-2.65s-0.93-2.27-0.93-5.39V29.09z"/>
							</g>
							
								<linearGradient id="SVGID_1_" gradientUnits="userSpaceOnUse" x1="-627.1403" y1="442.5112" x2="-626.9172" y2="441.5112" gradientTransform="matrix(39.5494 0 0 -80.5955 24817.2012 35662.9141)">
								<stop  offset="0" style="stop-color:#FFFFFF"/>
								<stop  offset="1" style="stop-color:#FEFEFE"/>
							</linearGradient>
							<path class="st17" d="M-0.92,30.49H-1.4V9.13h0.48V9c0-3.06,0.28-4.53,1.1-6.05C0.92,1.57,2.02,0.47,3.4-0.27
								c1.53-0.82,3-1.1,6.05-1.1h18.32c3.06,0,4.53,0.28,6.05,1.1c1.38,0.74,2.48,1.84,3.22,3.22c0.82,1.53,1.1,3,1.1,6.05v59.85
								c0,3.06-0.28,4.53-1.1,6.05c-0.74,1.38-1.84,2.48-3.22,3.22c-1.53,0.82-3,1.1-6.05,1.1H9.46c-3.06,0-4.53-0.28-6.05-1.1
								c-1.38-0.74-2.48-1.84-3.22-3.22c-0.82-1.53-1.1-3-1.1-6.05V30.49z"/>
						</g>
						
							<linearGradient id="screen-frame_1_" gradientUnits="userSpaceOnUse" x1="-625.8124" y1="442.3054" x2="-625.597" y2="441.3054" gradientTransform="matrix(35.737 0 0 -77.0013 22379.3613 34058.4102)">
							<stop  offset="0" style="stop-color:#FFFFFF"/>
							<stop  offset="1" style="stop-color:#FEFEFE"/>
						</linearGradient>
						<path id="screen-frame" class="st18" d="M9.5,1.65H8.15c-3.31,0-6,2.69-6,6v62.35c0,3.31,2.69,6,6,6h20.85c3.31,0,6-2.69,6-6
							V7.65c0-3.31-2.69-6-6-6h-1.36v3.53H9.5V1.65z M9.67,0.32h17.79c3.12,0,4.25,0.32,5.39,0.93C34,1.87,34.89,2.76,35.5,3.9
							c0.61,1.14,0.93,2.27,0.93,5.39v59.05c0,3.12-0.32,4.25-0.93,5.39c-0.61,1.14-1.51,2.04-2.65,2.65
							c-1.14,0.61-2.27,0.93-5.39,0.93H9.67c-3.12,0-4.25-0.32-5.39-0.93s-2.04-1.51-2.65-2.65C1.03,72.6,0.7,71.47,0.7,68.35V9.29
							c0-3.12,0.32-4.25,0.93-5.39s1.51-2.04,2.65-2.65S6.55,0.32,9.67,0.32z"/>
						<g id="sensor-camera" transform="translate(16.160468, 2.472098)" class="st19">
							<g id="Group" transform="translate(6.569296, 0.000000)" class="st20">
								<g id="Oval_1_">
									<g>
										<ellipse id="path-25" class="st1" cx="0.53" cy="0.55" rx="1" ry="1"/>
									</g>
									<g>
										<ellipse id="path-25_1_" class="st21" cx="0.53" cy="0.55" rx="1" ry="1"/>
									</g>
									<g>
										<ellipse id="path-25_2_" class="st1" cx="0.53" cy="0.55" rx="1" ry="1"/>
									</g>
								</g>
								<g id="Oval_2_">
									<g>
										<ellipse id="path-28" class="st1" cx="0.53" cy="0.55" rx="1" ry="1"/>
									</g>
									<g>
										<ellipse id="path-28_1_" class="st21" cx="0.53" cy="0.55" rx="1" ry="1"/>
									</g>
									<g>
										<ellipse id="path-28_2_" class="st1" cx="0.53" cy="0.55" rx="1" ry="1"/>
									</g>
								</g>
							</g>
							<g id="Rectangle-2">
								<g>
									<path id="path-31" class="st1" d="M0.5,0.32h3.38c0.28,0,0.5,0.22,0.5,0.5l0,0c0,0.28-0.22,0.5-0.5,0.5H0.5
										C0.22,1.32,0,1.1,0,0.82l0,0C0,0.54,0.22,0.32,0.5,0.32z"/>
								</g>
								<g>
									<path id="path-31_1_" class="st21" d="M0.5,0.32h3.38c0.28,0,0.5,0.22,0.5,0.5l0,0c0,0.28-0.22,0.5-0.5,0.5H0.5
										C0.22,1.32,0,1.1,0,0.82l0,0C0,0.54,0.22,0.32,0.5,0.32z"/>
								</g>
								<g>
									<path id="path-31_2_" class="st1" d="M0.5,0.32h3.38c0.28,0,0.5,0.22,0.5,0.5l0,0c0,0.28-0.22,0.5-0.5,0.5H0.5
										C0.22,1.32,0,1.1,0,0.82l0,0C0,0.54,0.22,0.32,0.5,0.32z"/>
								</g>
							</g>
						</g>
					</g>
				</g>
				<rect id="Rectangle-Copy-7" x="6" y="10.4" class="st13" width="25" height="4.16"/>
				<rect id="Rectangle-Copy-8" x="6" y="16.64" class="st13" width="25" height="4.16"/>
				<rect id="Rectangle-Copy-12" x="6" y="42.64" class="st13" width="25" height="4.16"/>
				<rect id="Rectangle-Copy-34" x="6" y="48.88" class="st13" width="25" height="4.16"/>
				<rect id="Rectangle-Copy-35" x="6" y="55.12" class="st13" width="25" height="4.16"/>
				<rect id="Rectangle-Copy-44" x="6" y="62.4" class="st13" width="25" height="4.16"/>
				<rect id="Rectangle-Copy-64" x="6" y="67.6" class="st13" width="25" height="3.12"/>
				<rect id="Rectangle-Copy-10" x="6" y="30.16" class="st14" width="11" height="10.4"/>
				<rect id="Rectangle-Copy-11" x="20" y="30.16" class="st14" width="11" height="10.4"/>
				<rect id="Rectangle-Copy-9" x="6" y="23.92" class="st14" width="25" height="4.16"/>
			</g>
		</g>
	</g>
</g>
</svg>
