<?xml version="1.0" encoding="UTF-8"?>
<svg width="136px" height="23px" viewBox="0 0 136 23" version="1.1" xmlns="http://www.w3.org/2000/svg" xmlns:xlink="http://www.w3.org/1999/xlink">
    <!-- Generator: Sketch 55.2 (78181) - https://sketchapp.com -->
    <title>yt_ads_rgb_black</title>
    <desc>Created with Sketch.</desc>
    <g id="Page-1" stroke="none" stroke-width="1" fill="none" fill-rule="evenodd">
        <g id="yt_ads_rgb_black" fill-rule="nonzero">
            <g id="Group" transform="translate(107.000000, 0.000000)" fill="#282828">
                <path d="M6.9,17 L3.4,17 L2.8,21.3 L0.4,21.3 L3.4,1.6 L6.9,1.6 L9.9,21.3 L7.5,21.3 L6.9,17 Z M6.7,15.2 L5.8,8.3 C5.7,7.5 5.5,6 5.3,3.7 L5,3.7 C4.8,5.4 4.7,7 4.5,8.3 L3.6,15.2 L6.7,15.2 Z" id="Shape"></path>
                <path d="M19.5,0.9 L19.5,21.3 L17.7,21.3 L17.4,19.4 L17.3,19.4 C17,20 16.7,20.5 16.1,20.9 C15.6,21.3 15,21.5 14.3,21.5 C13.3,21.5 12.5,21 12,20.1 C11.5,19.2 11.3,17.7 11.3,15.6 L11.3,12.9 C11.3,10.8 11.6,9.3 12.1,8.3 C12.6,7.3 13.4,6.8 14.5,6.8 C15.1,6.8 15.6,6.9 16.1,7.2 C16.6,7.5 16.9,7.8 17.2,8.3 L17.3,8.3 C17.2,7.2 17.2,6.2 17.2,5.4 L17.2,1 L19.5,1 L19.5,0.9 Z M16.4,19.3 C16.7,19 16.9,18.7 17.2,18.2 L17.2,9.6 C17,9.3 16.8,9 16.5,8.9 C16.2,8.7 15.9,8.6 15.6,8.6 C15.2,8.6 14.9,8.7 14.6,9 C14.4,9.3 14.2,9.7 14.1,10.4 C14,11.1 13.9,11.9 13.9,13.1 L13.9,15.4 C13.9,16.5 13.9,17.4 14,18 C14.1,18.6 14.3,19 14.5,19.3 C14.7,19.6 15,19.7 15.4,19.7 C15.8,19.7 16.1,19.6 16.4,19.3 Z" id="Shape"></path>
                <path d="M21.4,18.1 C21.4,17.8 21.4,17.4 21.5,17 L23.6,17 C23.6,17.1 23.6,17.3 23.6,17.6 C23.6,19.2 24.1,20 25.2,20 C25.7,20 26,19.8 26.3,19.5 C26.6,19.2 26.7,18.8 26.7,18.3 C26.7,17.8 26.5,17.3 26.1,16.8 C25.7,16.3 25,15.7 24,14.9 C23.1,14.2 22.4,13.5 22,12.9 C21.6,12.2 21.4,11.4 21.4,10.5 C21.4,9.3 21.7,8.5 22.3,7.9 C22.9,7.3 23.9,7 25.1,7 C26.3,7 27.2,7.3 27.7,7.9 C28.3,8.5 28.5,9.5 28.5,10.8 C28.5,11.2 28.5,11.5 28.5,11.7 L26.4,11.8 C26.4,10.7 26.3,9.9 26.1,9.5 C25.9,9.1 25.5,8.8 25,8.8 C24.5,8.8 24.1,8.9 23.9,9.2 C23.6,9.5 23.5,9.9 23.5,10.4 C23.5,10.9 23.6,11.4 23.9,11.8 C24.2,12.2 24.7,12.7 25.5,13.3 C26.3,13.9 27,14.5 27.4,15 C27.8,15.5 28.2,15.9 28.4,16.4 C28.6,16.9 28.7,17.5 28.7,18.1 C28.7,19.3 28.4,20.3 27.7,20.9 C27,21.5 26.1,21.8 24.9,21.8 C22.6,21.6 21.4,20.4 21.4,18.1 Z" id="Path"></path>
            </g>
            <g id="Group">
                <g id="Path">
                    <path d="M32.5,3.6 C32.1,2.2 31,1.1 29.6,0.7 C27,0 16.7,0 16.7,0 C16.7,0 6.4,0 3.9,0.7 C2.5,1.1 1.4,2.2 1,3.6 C0.3,6.2 0.3,11.5 0.3,11.5 C0.3,11.5 0.3,16.8 1,19.4 C1.4,20.8 2.5,21.9 3.9,22.3 C6.4,23 16.7,23 16.7,23 C16.7,23 27,23 29.5,22.3 C30.9,21.9 32,20.8 32.4,19.4 C33.1,16.8 33.1,11.5 33.1,11.5 C33.1,11.5 33.2,6.2 32.5,3.6 Z" fill="#FF0000"></path>
                    <polygon fill="#FFFFFF" points="13.4 16.4 22 11.5 13.4 6.6"></polygon>
                </g>
                <g transform="translate(36.000000, 0.000000)" fill="#282828">
                    <path d="M12,20.9 C11.3,20.5 10.9,19.8 10.6,18.9 C10.3,18 10.2,16.7 10.2,15.2 L10.2,13.1 C10.2,11.5 10.4,10.3 10.7,9.4 C11,8.5 11.5,7.8 12.2,7.3 C12.9,6.9 13.7,6.7 14.8,6.7 C15.9,6.7 16.7,6.9 17.4,7.4 C18,7.8 18.5,8.5 18.8,9.5 C19.1,10.4 19.2,11.7 19.2,13.2 L19.2,15.3 C19.2,16.8 19.1,18.1 18.8,19 C18.5,19.9 18,20.6 17.4,21 C16.7,21.4 15.9,21.6 14.8,21.6 C13.5,21.6 12.6,21.4 12,20.9 Z M15.6,18.7 C15.8,18.2 15.9,17.5 15.9,16.4 L15.9,11.9 C15.9,10.9 15.8,10.1 15.6,9.6 C15.4,9.1 15.1,8.9 14.6,8.9 C14.2,8.9 13.9,9.1 13.7,9.6 C13.5,10.1 13.4,10.8 13.4,11.9 L13.4,16.4 C13.4,17.5 13.5,18.2 13.7,18.7 C13.9,19.2 14.2,19.4 14.6,19.4 C15.1,19.4 15.4,19.1 15.6,18.7 Z" id="Shape"></path>
                    <path d="M61.9,15.2 L61.9,16 C61.9,16.9 61.9,17.6 62,18.1 C62.1,18.6 62.2,18.9 62.3,19.1 C62.5,19.3 62.7,19.4 63.1,19.4 C63.6,19.4 63.9,19.2 64.1,18.8 C64.3,18.4 64.4,17.8 64.4,16.9 L67.2,17.1 C67.2,17.2 67.2,17.4 67.2,17.6 C67.2,18.9 66.8,19.9 66.1,20.6 C65.4,21.3 64.3,21.6 63,21.6 C61.4,21.6 60.3,21.1 59.6,20.1 C58.9,19.1 58.6,17.5 58.6,15.4 L58.6,12.9 C58.6,10.7 58.9,9.2 59.6,8.2 C60.3,7.2 61.4,6.7 63,6.7 C64.1,6.7 65,6.9 65.6,7.3 C66.2,7.7 66.6,8.3 66.9,9.2 C67.1,10.1 67.3,11.2 67.3,12.8 L67.3,15.3 L61.9,15.2 L61.9,15.2 Z M62.3,9.2 C62.1,9.4 62,9.7 62,10.2 C61.9,10.7 61.9,11.4 61.9,12.3 L61.9,13.3 L64.3,13.3 L64.3,12.3 C64.3,11.4 64.3,10.7 64.2,10.2 C64.1,9.7 64,9.4 63.9,9.2 C63.8,9 63.5,8.9 63.1,8.9 C62.7,8.9 62.5,9 62.3,9.2 Z" id="Shape"></path>
                    <path d="M4.1,15 L0.4,1.7 L3.6,1.7 L4.9,7.7 C5.2,9.2 5.5,10.5 5.6,11.5 L5.7,11.5 C5.8,10.8 6.1,9.5 6.4,7.7 L7.7,1.6 L11,1.6 L7.3,15 L7.3,21.4 L4.1,21.4 L4.1,15 L4.1,15 Z" id="Path"></path>
                    <path d="M29.6,6.9 L29.6,21.3 L27.1,21.3 L26.8,19.5 L26.7,19.5 C26,20.8 25,21.5 23.6,21.5 C22.6,21.5 21.9,21.2 21.5,20.6 C21,20 20.8,19 20.8,17.7 L20.8,6.9 L24,6.9 L24,17.5 C24,18.1 24.1,18.6 24.2,18.9 C24.3,19.2 24.6,19.3 24.9,19.3 C25.2,19.3 25.5,19.2 25.7,19 C26,18.8 26.1,18.6 26.3,18.3 L26.3,6.9 L29.6,6.9 Z" id="Path"></path>
                    <path d="M46.3,6.9 L46.3,21.3 L43.8,21.3 L43.5,19.5 L43.4,19.5 C42.7,20.8 41.7,21.5 40.3,21.5 C39.3,21.5 38.6,21.2 38.2,20.6 C37.7,20 37.5,19 37.5,17.7 L37.5,6.9 L40.7,6.9 L40.7,17.5 C40.7,18.1 40.8,18.6 40.9,18.9 C41,19.2 41.3,19.3 41.6,19.3 C41.9,19.3 42.2,19.2 42.4,19 C42.7,18.8 42.8,18.6 43,18.3 L43,6.9 L46.3,6.9 Z" id="Path"></path>
                    <polygon id="Path" points="38.4 4.2 35.2 4.2 35.2 21.3 32 21.3 32 4.2 28.8 4.2 28.8 1.6 38.4 1.6 38.4 4.2"></polygon>
                    <path d="M57,9.2 C56.8,8.3 56.5,7.6 56,7.2 C55.6,6.8 55,6.6 54.2,6.6 C53.6,6.6 53,6.8 52.5,7.1 C52,7.4 51.6,7.9 51.3,8.4 L51.3,8.4 L51.3,0.8 L48.2,0.8 L48.2,21.2 L50.9,21.2 L51.2,19.8 L51.3,19.8 C51.6,20.3 51.9,20.7 52.4,20.9 C52.9,21.2 53.5,21.3 54.1,21.3 C55.2,21.3 56,20.8 56.5,19.8 C57,18.8 57.3,17.2 57.3,15.1 L57.3,13 C57.3,11.4 57.2,10.2 57,9.2 Z M54,15.1 C54,16.1 54,17 53.9,17.6 C53.8,18.2 53.7,18.6 53.5,18.9 C53.3,19.2 53,19.3 52.7,19.3 C52.4,19.3 52.2,19.2 52,19.1 C51.8,19 51.6,18.8 51.4,18.5 L51.4,10.3 C51.5,9.9 51.7,9.6 52,9.3 C52.3,9 52.6,8.9 52.9,8.9 C53.2,8.9 53.5,9 53.7,9.3 C53.9,9.6 54,10 54.1,10.6 C54.2,11.2 54.2,12.1 54.2,13.2 L54.2,15.1 L54,15.1 Z" id="Shape"></path>
                </g>
            </g>
        </g>
    </g>
</svg>